<?xml version="1.0" encoding="UTF-8" standalone="no"?>
<!DOCTYPE svg PUBLIC "-//W3C//DTD SVG 1.1//EN" "http://www.w3.org/Graphics/SVG/1.1/DTD/svg11.dtd">
<!-- Generated by Microsoft Visio, SVG Export how-does-http-work.svg Page-1 -->
<svg xmlns="http://www.w3.org/2000/svg" xmlns:xlink="http://www.w3.org/1999/xlink" xmlns:ev="http://www.w3.org/2001/xml-events"
		xmlns:v="http://schemas.microsoft.com/visio/2003/SVGExtensions/" width="5.79524in" height="3.19058in"
		viewBox="0 0 417.257 229.721" xml:space="preserve" color-interpolation-filters="sRGB" class="st24">
	<v:documentProperties v:langID="1026" v:metric="true" v:viewMarkup="false"/>

	<style type="text/css">
	<![CDATA[
		.st1 {fill:none;stroke:none;stroke-linecap:round;stroke-linejoin:round;stroke-width:0.75}
		.st2 {fill:#000000;font-family:Arial;font-size:1.00001em}
		.st3 {fill:#f2f2f2;stroke:none;stroke-linecap:round;stroke-linejoin:round;stroke-width:0.24}
		.st4 {fill:#0e6f9c;stroke:none;stroke-linecap:butt;stroke-width:1.19531}
		.st5 {fill:#0e6f9c;stroke:#ffffff;stroke-linecap:round;stroke-linejoin:round;stroke-width:0.749999}
		.st6 {fill:#2f698c;stroke:#ffffff;stroke-linecap:round;stroke-linejoin:round;stroke-width:0.749999}
		.st7 {fill:none}
		.st8 {stroke:#ffffff;stroke-linecap:round;stroke-linejoin:round;stroke-width:0.749999}
		.st9 {fill:none;stroke:#ffffff;stroke-linecap:round;stroke-linejoin:round;stroke-width:0.749999}
		.st10 {fill:#c4d6a0;stroke:#000000;stroke-linecap:round;stroke-linejoin:round;stroke-width:1}
		.st11 {fill:#000000;font-family:Arial;font-size:0.833336em}
		.st12 {marker-end:url(#mrkr4-56);stroke:#000000;stroke-linecap:round;stroke-linejoin:round;stroke-width:1}
		.st13 {fill:#000000;fill-opacity:1;stroke:#000000;stroke-opacity:1;stroke-width:0.40983606557377}
		.st14 {stroke:#000000;stroke-linecap:round;stroke-linejoin:round;stroke-width:1}
		.st15 {stroke:#bfbfbf;stroke-dasharray:3,3;stroke-width:1}
		.st16 {fill:#126d99;stroke:none;stroke-linecap:round;stroke-linejoin:round;stroke-width:0.24}
		.st17 {fill:#ffffff;font-family:Arial;font-size:1.00001em;font-weight:bold}
		.st18 {fill:#ffd965;stroke:#000000;stroke-linecap:round;stroke-linejoin:round;stroke-width:1}
		.st19 {stroke:#d8d8d8;stroke-linecap:round;stroke-linejoin:round;stroke-width:1.5}
		.st20 {fill:#d8d8d8}
		.st21 {stroke:none;stroke-linecap:round;stroke-linejoin:round;stroke-width:1}
		.st22 {fill:#7f7f7f;font-family:Arial;font-size:1.00001em}
		.st23 {fill:#126d99;font-family:Arial;font-size:0.833336em;font-weight:bold}
		.st24 {fill:none;fill-rule:evenodd;font-size:12px;overflow:visible;stroke-linecap:square;stroke-miterlimit:3}
	]]>
	</style>

	<defs id="Markers">
		<g id="lend4">
			<path d="M 2 1 L 0 0 L 2 -1 L 2 1 " style="stroke:none"/>
		</g>
		<marker id="mrkr4-56" class="st13" v:arrowType="4" v:arrowSize="0" v:setback="4.88" refX="-4.88" orient="auto"
				markerUnits="strokeWidth" overflow="visible">
			<use xlink:href="#lend4" transform="scale(-2.44,-2.44) "/>
		</marker>
	</defs>
	<g v:mID="0" v:index="1" v:groupContext="foregroundPage">
		<title>Page-1</title>
		<v:pageProperties v:drawingScale="0.0393701" v:pageScale="0.0393701" v:drawingUnits="24" v:shadowOffsetX="8.50394"
				v:shadowOffsetY="-8.50394"/>
		<g id="group130-1" transform="translate(1.19531,-1)" v:mID="130" v:groupContext="group">
			<title>Sheet.130</title>
			<g id="shape45-2" v:mID="45" v:groupContext="shape" transform="translate(352.139,-208.346)">
				<title>Sheet.45</title>
				<desc>Server</desc>
				<v:textBlock v:margins="rect(4,4,4,4)" v:tabSpace="42.5197"/>
				<v:textRect cx="24.6872" cy="219.721" width="49.38" height="20"/>
				<rect x="0" y="209.721" width="49.3744" height="20" class="st1"/>
				<text x="7.02" y="223.32" class="st2" v:langID="1033"><v:paragraph v:horizAlign="1"/><v:tabList/>Server</text>			</g>
			<g id="shape46-5" v:mID="46" v:groupContext="shape" transform="translate(-2.39808E-14,-193.278)">
				<title>Sheet.46</title>
				<desc>Client</desc>
				<v:textBlock v:margins="rect(4,4,4,4)" v:tabSpace="42.5197"/>
				<v:textRect cx="20.4252" cy="219.721" width="40.86" height="20"/>
				<rect x="0" y="209.721" width="40.8504" height="20" class="st1"/>
				<text x="5.09" y="223.32" class="st2" v:langID="1033"><v:paragraph v:horizAlign="1"/><v:tabList/>Client</text>			</g>
			<g id="group60-8" transform="translate(3.9968E-15,-142.822)" v:mID="60" v:groupContext="group">
				<title>Wireless Client</title>
				<g id="shape61-9" v:mID="61" v:groupContext="shape" transform="translate(30.1117,-6.11868)">
					<title>Rectangle</title>
					<v:userDefs>
						<v:ud v:nameU="visVersion" v:val="VT0(15):26"/>
					</v:userDefs>
					<rect x="0" y="214.765" width="10.5771" height="14.9569" class="st3"/>
				</g>
				<g id="group62-11" v:mID="62" v:groupContext="group">
					<title>Sheet.62</title>
					<g id="shape63-12" v:mID="63" v:groupContext="shape" transform="translate(13.8973,-2.27374E-13)">
						<title>Sheet.63</title>
						<path d="M5.82 208.18 L5.82 225.04 L0 225.04 C0 227.62 1.94 229.72 4.34 229.72 L35.44 229.72 C35.48 229.72
									 35.4 229.71 35.44 229.71 L35.44 228.16 L35.44 225.04 L35.44 208.18 C35.44 207.49 34.88 206.93
									 34.19 206.93 L7.07 206.93 C6.39 206.93 5.82 207.49 5.82 208.18 ZM24.5 210.22 C24.5 211.72 23.16
									 213.24 21.65 212.9 C21.65 212.9 21.81 210.22 24.5 210.22 ZM19.31 213.66 C20.37 213.32 21.53
									 213.77 21.72 214.39 C21.94 213.77 23.11 213.35 24.15 213.71 C24.55 213.85 24.93 214.08 25.25
									 214.38 C24.23 214.85 23.53 215.88 23.53 217.07 C23.53 218.32 24.3 219.39 25.39 219.83 C24.47
									 221.14 23 221.79 21.64 221.77 C19.58 221.75 17.24 220.19 17.13 217.09 C17.06 215.26 18.07 214.05
									 19.31 213.66 Z" class="st4"/>
					</g>
					<g id="shape64-14" v:mID="64" v:groupContext="shape" transform="translate(9.92345,-32.6061)">
						<title>Sheet.64</title>
						<path d="M8.46 229.72 C13.13 229.72 16.92 225.93 16.92 221.26 C16.92 216.58 13.13 212.8 8.46 212.8 C3.79
									 212.8 0 216.58 0 221.26 C0 225.93 3.79 229.72 8.46 229.72 Z" class="st4"/>
					</g>
					<g id="shape65-16" v:mID="65" v:groupContext="shape">
						<title>Sheet.65</title>
						<path d="M7.36 224.53 L7.5 229.72 L13.83 229.72 C12.64 228.54 11.9 226.89 11.9 225.04 L11.9 223.31 L17.72
									 223.31 L17.72 208.18 C17.72 206.54 19.05 205.21 20.69 205.21 L35.51 205.21 C30.89 201.33 23.45
									 201.05 19.34 201.05 C13.34 201.05 2.4 201.64 1.41 213.26 L0 229.72 L6.15 229.72 L7.36 224.53
									 Z" class="st4"/>
					</g>
				</g>
			</g>
			<g id="group66-18" transform="translate(358.279,-142.822)" v:mID="66" v:groupContext="group">
				<title>Sheet.66</title>
				<g id="shape67-19" v:mID="67" v:groupContext="shape">
					<title>Sheet.67</title>
					<path d="M0 188.58 L0 229.72 L28.72 229.72 L28.72 188.58 L0 188.58 Z" class="st5"/>
				</g>
				<g id="shape68-21" v:mID="68" v:groupContext="shape" transform="translate(-1.79856E-13,-41.139)">
					<title>Sheet.68</title>
					<path d="M0 229.72 L8.38 221.33 L37.09 221.33 L28.72 229.72 L0 229.72 Z" class="st5"/>
				</g>
				<g id="shape69-23" v:mID="69" v:groupContext="shape" transform="translate(28.7157,2.84217E-14)">
					<title>Sheet.69</title>
					<path d="M0 229.72 L8.38 221.33 L8.38 180.19 L0 188.58 L0 229.72 Z" class="st6"/>
				</g>
				<g id="shape70-25" v:mID="70" v:groupContext="shape" transform="translate(0.523464,-29.824)">
					<title>Sheet.70</title>
					<path d="M0 229.72 L27.74 229.72 L0 229.72 Z" class="st7"/>
					<path d="M0 229.72 L27.74 229.72" class="st8"/>
				</g>
				<g id="shape71-28" v:mID="71" v:groupContext="shape" transform="translate(0.299122,-30.0488)">
					<title>Sheet.71</title>
					<path d="M0 229.72 L28.12 229.72 L0 229.72 Z" class="st7"/>
					<path d="M0 229.72 L28.12 229.72" class="st8"/>
				</g>
				<g id="shape72-31" v:mID="72" v:groupContext="shape" transform="translate(0.523464,-16.3357)">
					<title>Sheet.72</title>
					<path d="M0 229.72 L27.67 229.72 L0 229.72 Z" class="st7"/>
					<path d="M0 229.72 L27.67 229.72" class="st8"/>
				</g>
				<g id="shape73-34" v:mID="73" v:groupContext="shape" transform="translate(0.299122,-16.5605)">
					<title>Sheet.73</title>
					<path d="M0 229.72 L28.12 229.72 L0 229.72 Z" class="st7"/>
					<path d="M0 229.72 L28.12 229.72" class="st8"/>
				</g>
				<g id="shape74-37" v:mID="74" v:groupContext="shape" transform="translate(10.1702,-21.9558)">
					<title>Sheet.74</title>
					<path d="M0 229.72 L8.15 229.72 L0 229.72 Z" class="st7"/>
					<path d="M0 229.72 L8.15 229.72" class="st8"/>
				</g>
				<g id="shape75-40" v:mID="75" v:groupContext="shape" transform="translate(10.1702,-24.4287)">
					<title>Sheet.75</title>
					<path d="M0 229.72 L8.15 229.72 L0 229.72 Z" class="st7"/>
					<path d="M0 229.72 L8.15 229.72" class="st8"/>
				</g>
				<g id="shape76-43" v:mID="76" v:groupContext="shape" transform="translate(6.9546,-19.1083)">
					<title>Sheet.76</title>
					<path d="M14.36 229.72 L14.36 221.85 L0 221.85 L0 229.72 L14.36 229.72 Z" class="st9"/>
				</g>
			</g>
			<g id="shape79-45" v:mID="79" v:groupContext="shape" transform="translate(337.966,-193.899)">
				<title>Sheet.79</title>
				<desc>Google.com</desc>
				<v:textBlock v:margins="rect(4,4,4,4)" v:tabSpace="42.5197"/>
				<v:textRect cx="38.8604" cy="219.721" width="77.73" height="20"/>
				<rect x="0" y="209.721" width="77.7209" height="20" class="st1"/>
				<text x="9.02" y="223.32" class="st2" v:langID="1033"><v:paragraph v:horizAlign="2"/><v:tabList/>Google.com</text>			</g>
			<g id="shape80-48" v:mID="80" v:groupContext="shape" transform="translate(43.8783,-107.624)">
				<title>Rectangle</title>
				<desc>GET /home.html</desc>
				<v:userDefs>
					<v:ud v:nameU="visVersion" v:val="VT0(15):26"/>
				</v:userDefs>
				<v:textBlock v:margins="rect(4,4,4,4)" v:tabSpace="42.5197"/>
				<v:textRect cx="44.4496" cy="221.762" width="88.9" height="15.918"/>
				<rect x="0" y="213.803" width="88.8992" height="15.918" rx="1" ry="1" class="st10"/>
				<text x="8.05" y="224.76" class="st11" v:langID="1033"><v:paragraph v:horizAlign="1"/><v:tabList/>GET /home.html</text>			</g>
			<g id="shape81-51" v:mID="81" v:groupContext="shape" transform="translate(132.778,-115.583)">
				<title>Sheet.81</title>
				<path d="M0 229.72 L195.38 229.72" class="st12"/>
			</g>
			<g id="shape82-57" v:mID="82" v:groupContext="shape" transform="translate(43.8783,348.826) rotate(180)">
				<title>Sheet.82</title>
				<path d="M0 229.72 L11.34 229.72" class="st14"/>
			</g>
			<g id="shape83-60" v:mID="83" v:groupContext="shape" transform="translate(43.8783,345.46) rotate(180)">
				<title>Sheet.83</title>
				<path d="M0 229.72 L7.65 229.72" class="st14"/>
			</g>
			<g id="shape84-63" v:mID="84" v:groupContext="shape" transform="translate(43.8783,341.995) rotate(180)">
				<title>Sheet.84</title>
				<path d="M0 229.72 L4.82 229.72" class="st14"/>
			</g>
			<g id="shape91-66" v:mID="91" v:groupContext="shape" transform="translate(43.8783,-122.248)">
				<title>Sheet.91</title>
				<desc>HTTP Header</desc>
				<v:textBlock v:margins="rect(4,4,4,4)" v:tabSpace="42.5197"/>
				<v:textRect cx="44.4496" cy="221.762" width="88.9" height="15.918"/>
				<rect x="0" y="213.803" width="88.8992" height="15.918" class="st1"/>
				<text x="13.61" y="224.26" class="st11" v:langID="1033"><v:paragraph v:spLine="-1" v:horizAlign="1"/><v:tabList/>HTTP Header</text>			</g>
			<g id="shape93-69" v:mID="93" v:groupContext="shape" transform="translate(246.023,-72.2835)">
				<title>Round Corner Rectangle</title>
				<desc>OK</desc>
				<v:userDefs>
					<v:ud v:nameU="CTypeTopLeftSnip" v:prompt="" v:val="VT0(0):5"/>
					<v:ud v:nameU="CTypeTopRightSnip" v:prompt="" v:val="VT0(0):5"/>
					<v:ud v:nameU="CTypeBotLeftSnip" v:prompt="" v:val="VT0(0):5"/>
					<v:ud v:nameU="CTypeBotRightSnip" v:prompt="" v:val="VT0(0):5"/>
					<v:ud v:nameU="CornerLockHoriz" v:prompt="" v:val="VT0(0):5"/>
					<v:ud v:nameU="CornerLockVert" v:prompt="" v:val="VT0(0):5"/>
					<v:ud v:nameU="CornerLockDiag" v:prompt="" v:val="VT0(0):5"/>
					<v:ud v:nameU="TopLeftOffset" v:prompt="" v:val="VT0(0.15748031496063):24"/>
					<v:ud v:nameU="TopRightOffset" v:prompt="" v:val="VT0(0.15748031496063):24"/>
					<v:ud v:nameU="BotLeftOffset" v:prompt="" v:val="VT0(0.15748031496063):24"/>
					<v:ud v:nameU="BotRightOffset" v:prompt="" v:val="VT0(0.15748031496063):24"/>
					<v:ud v:nameU="visVersion" v:prompt="" v:val="VT0(15):26"/>
					<v:ud v:nameU="TopLeftOffset" v:prompt="" v:val="VT0(0.027558949524402):1"/>
					<v:ud v:nameU="TopRightOffset" v:prompt="" v:val="VT0(0):1"/>
					<v:ud v:nameU="BotLeftOffset" v:prompt="" v:val="VT0(0.027558949524402):1"/>
					<v:ud v:nameU="BotRightOffset" v:prompt="" v:val="VT0(0):1"/>
				</v:userDefs>
				<v:textBlock v:margins="rect(4,4,4,4)" v:tabSpace="42.5197"/>
				<v:textRect cx="27.6381" cy="221.762" width="55.28" height="15.918"/>
				<path d="M1.98 229.72 L55.28 229.72 L55.28 213.8 L1.98 213.8 A1.98421 1.98421 -180 0 0 0 215.79 L0 227.74 A1.98421
							 1.98421 -180 0 0 1.98 229.72 Z" class="st10"/>
				<text x="20.41" y="224.76" class="st11" v:langID="1033"><v:paragraph v:horizAlign="1"/><v:tabList/>OK</text>			</g>
			<g id="shape89-72" v:mID="89" v:groupContext="shape" transform="translate(243.756,-89.0634)">
				<title>Sheet.89</title>
				<desc>HTTP Header</desc>
				<v:textBlock v:margins="rect(2,4,4,2)" v:tabSpace="42.5197"/>
				<v:textRect cx="34.9056" cy="223.304" width="69.82" height="12.8346"/>
				<rect x="0" y="216.887" width="69.8113" height="12.8346" class="st1"/>
				<text x="3.06" y="224.8" class="st11" v:langID="1033"><v:paragraph v:spLine="-1" v:horizAlign="1"/><v:tabList/>HTTP Header</text>			</g>
			<g id="shape90-75" v:mID="90" v:groupContext="shape" transform="translate(301.866,-89.0634)">
				<title>Sheet.90</title>
				<desc>Data</desc>
				<v:textBlock v:margins="rect(4,4,4,4)" v:tabSpace="42.5197"/>
				<v:textRect cx="27.6381" cy="223.304" width="55.28" height="12.8346"/>
				<rect x="0" y="216.887" width="55.2761" height="12.8346" class="st1"/>
				<text x="17.08" y="225.8" class="st11" v:langID="1033"><v:paragraph v:spLine="-1" v:horizAlign="1"/><v:tabList/>Data</text>			</g>
			<g id="shape95-78" v:mID="95" v:groupContext="shape" transform="translate(246.023,379.2) rotate(180)">
				<title>Sheet.95</title>
				<path d="M0 229.72 L180.27 229.72" class="st12"/>
			</g>
			<g id="shape96-83" v:mID="96" v:groupContext="shape" transform="translate(356.093,-74.5404)">
				<title>Sheet.96</title>
				<path d="M0 229.72 L10.41 229.72" class="st14"/>
			</g>
			<g id="shape97-86" v:mID="97" v:groupContext="shape" transform="translate(356.291,-77.4256)">
				<title>Sheet.97</title>
				<path d="M0 229.72 L7.37 229.72" class="st14"/>
			</g>
			<g id="shape98-89" v:mID="98" v:groupContext="shape" transform="translate(356.291,-80.2425)">
				<title>Sheet.98</title>
				<path d="M0 229.72 L3.71 229.72" class="st14"/>
			</g>
			<g id="shape101-92" v:mID="101" v:groupContext="shape" transform="translate(256.592,95.0758) rotate(90)">
				<title>Sheet.101</title>
				<path d="M0 229.72 L134.65 229.72" class="st15"/>
			</g>
			<g id="shape102-95" v:mID="102" v:groupContext="shape" transform="translate(602.419,95.0758) rotate(90)">
				<title>Sheet.102</title>
				<path d="M0 229.72 L134.65 229.72" class="st15"/>
			</g>
			<g id="shape107-98" v:mID="107" v:groupContext="shape" transform="translate(301.866,-52.8545)">
				<title>Sheet.107</title>
				<desc>Data</desc>
				<v:textBlock v:margins="rect(4,4,4,4)" v:tabSpace="42.5197"/>
				<v:textRect cx="27.6381" cy="223.304" width="55.28" height="12.8346"/>
				<rect x="0" y="216.887" width="55.2761" height="12.8346" class="st1"/>
				<text x="17.08" y="225.8" class="st11" v:langID="1033"><v:paragraph v:spLine="-1" v:horizAlign="1"/><v:tabList/>Data</text>			</g>
			<g id="shape108-101" v:mID="108" v:groupContext="shape" transform="translate(246.023,415.409) rotate(180)">
				<title>Sheet.108</title>
				<path d="M0 229.72 L180.27 229.72" class="st12"/>
			</g>
			<g id="shape109-106" v:mID="109" v:groupContext="shape" transform="translate(356.093,-38.3315)">
				<title>Sheet.109</title>
				<path d="M0 229.72 L10.41 229.72" class="st14"/>
			</g>
			<g id="shape110-109" v:mID="110" v:groupContext="shape" transform="translate(356.291,-41.2167)">
				<title>Sheet.110</title>
				<path d="M0 229.72 L7.37 229.72" class="st14"/>
			</g>
			<g id="shape111-112" v:mID="111" v:groupContext="shape" transform="translate(356.291,-44.0336)">
				<title>Sheet.111</title>
				<path d="M0 229.72 L3.71 229.72" class="st14"/>
			</g>
			<g id="shape112-115" v:mID="112" v:groupContext="shape" transform="translate(19.9658,-111.968)">
				<title>Circle</title>
				<desc>1</desc>
				<v:userDefs>
					<v:ud v:nameU="visVersion" v:val="VT0(15):26"/>
				</v:userDefs>
				<v:textBlock v:margins="rect(1,1,1,1)" v:tabSpace="42.5197"/>
				<v:textRect cx="7.05727" cy="222.664" width="12.36" height="10.5859"/>
				<path d="M0 222.66 A7.05727 7.05727 0 0 1 14.11 222.66 A7.05727 7.05727 0 1 1 0 222.66 Z" class="st16"/>
				<text x="3.72" y="226.26" class="st17" v:langID="1033"><v:paragraph v:horizAlign="1"/><v:tabList/>1</text>			</g>
			<g id="shape113-118" v:mID="113" v:groupContext="shape" transform="translate(366.083,-80.8461)">
				<title>Circle.113</title>
				<desc>2</desc>
				<v:userDefs>
					<v:ud v:nameU="visVersion" v:val="VT0(15):26"/>
				</v:userDefs>
				<v:textBlock v:margins="rect(1,1,1,1)" v:tabSpace="42.5197"/>
				<v:textRect cx="7.05727" cy="222.664" width="12.36" height="10.5859"/>
				<path d="M0 222.66 A7.05727 7.05727 0 0 1 14.11 222.66 A7.05727 7.05727 0 1 1 0 222.66 Z" class="st16"/>
				<text x="3.72" y="226.26" class="st17" v:langID="1033"><v:paragraph v:horizAlign="1"/><v:tabList/>2</text>			</g>
			<g id="shape114-121" v:mID="114" v:groupContext="shape" transform="translate(366.083,-42.0567)">
				<title>Circle.114</title>
				<desc>3</desc>
				<v:userDefs>
					<v:ud v:nameU="visVersion" v:val="VT0(15):26"/>
				</v:userDefs>
				<v:textBlock v:margins="rect(1,1,1,1)" v:tabSpace="42.5197"/>
				<v:textRect cx="7.05727" cy="222.664" width="12.36" height="10.5859"/>
				<path d="M0 222.66 A7.05727 7.05727 0 0 1 14.11 222.66 A7.05727 7.05727 0 1 1 0 222.66 Z" class="st16"/>
				<text x="3.72" y="226.26" class="st17" v:langID="1033"><v:paragraph v:horizAlign="1"/><v:tabList/>3</text>			</g>
			<g id="shape94-124" v:mID="94" v:groupContext="shape" transform="translate(301.015,-72.2835)">
				<title>Round Corner Rectangle.94</title>
				<desc>home.html</desc>
				<v:userDefs>
					<v:ud v:nameU="CTypeTopLeftSnip" v:prompt="" v:val="VT0(0):5"/>
					<v:ud v:nameU="CTypeTopRightSnip" v:prompt="" v:val="VT0(0):5"/>
					<v:ud v:nameU="CTypeBotLeftSnip" v:prompt="" v:val="VT0(0):5"/>
					<v:ud v:nameU="CTypeBotRightSnip" v:prompt="" v:val="VT0(0):5"/>
					<v:ud v:nameU="CornerLockHoriz" v:prompt="" v:val="VT0(0):5"/>
					<v:ud v:nameU="CornerLockVert" v:prompt="" v:val="VT0(0):5"/>
					<v:ud v:nameU="CornerLockDiag" v:prompt="" v:val="VT0(0):5"/>
					<v:ud v:nameU="TopLeftOffset" v:prompt="" v:val="VT0(0.15748031496063):24"/>
					<v:ud v:nameU="TopRightOffset" v:prompt="" v:val="VT0(0.15748031496063):24"/>
					<v:ud v:nameU="BotLeftOffset" v:prompt="" v:val="VT0(0.15748031496063):24"/>
					<v:ud v:nameU="BotRightOffset" v:prompt="" v:val="VT0(0.15748031496063):24"/>
					<v:ud v:nameU="visVersion" v:prompt="" v:val="VT0(15):26"/>
					<v:ud v:nameU="TopLeftOffset" v:prompt="" v:val="VT0(0):1"/>
					<v:ud v:nameU="TopRightOffset" v:prompt="" v:val="VT0(0.032283381563145):1"/>
					<v:ud v:nameU="BotLeftOffset" v:prompt="" v:val="VT0(0):1"/>
					<v:ud v:nameU="BotRightOffset" v:prompt="" v:val="VT0(0.027558972043373):1"/>
				</v:userDefs>
				<v:textBlock v:margins="rect(4,4,4,4)" v:tabSpace="42.5197"/>
				<v:textRect cx="27.6381" cy="221.762" width="55.28" height="15.918"/>
				<path d="M0 229.72 L53.29 229.72 A1.98421 1.98421 -180 0 0 55.28 227.74 L55.28 216.13 A2.32437 2.32437 -180 0 0 52.95
							 213.8 L0 213.8 L0 229.72 Z" class="st18"/>
				<text x="4.3" y="224.76" class="st11" v:langID="1033"><v:paragraph v:horizAlign="1"/><v:tabList/>home.html</text>			</g>
			<g id="shape104-127" v:mID="104" v:groupContext="shape" transform="translate(246.555,-36.0746)">
				<title>Round Corner Rectangle.104</title>
				<desc>More of file home.html</desc>
				<v:userDefs>
					<v:ud v:nameU="CTypeTopLeftSnip" v:prompt="" v:val="VT0(0):5"/>
					<v:ud v:nameU="CTypeTopRightSnip" v:prompt="" v:val="VT0(0):5"/>
					<v:ud v:nameU="CTypeBotLeftSnip" v:prompt="" v:val="VT0(0):5"/>
					<v:ud v:nameU="CTypeBotRightSnip" v:prompt="" v:val="VT0(0):5"/>
					<v:ud v:nameU="CornerLockHoriz" v:prompt="" v:val="VT0(0):5"/>
					<v:ud v:nameU="CornerLockVert" v:prompt="" v:val="VT0(0):5"/>
					<v:ud v:nameU="CornerLockDiag" v:prompt="" v:val="VT0(0):5"/>
					<v:ud v:nameU="TopLeftOffset" v:prompt="" v:val="VT0(0.15748031496063):24"/>
					<v:ud v:nameU="TopRightOffset" v:prompt="" v:val="VT0(0.15748031496063):24"/>
					<v:ud v:nameU="BotLeftOffset" v:prompt="" v:val="VT0(0.15748031496063):24"/>
					<v:ud v:nameU="BotRightOffset" v:prompt="" v:val="VT0(0.15748031496063):24"/>
					<v:ud v:nameU="visVersion" v:prompt="" v:val="VT0(15):26"/>
					<v:ud v:nameU="TopLeftOffset" v:prompt="" v:val="VT0(0.039370077917507):1"/>
					<v:ud v:nameU="TopRightOffset" v:prompt="" v:val="VT0(0.031978113894194):1"/>
					<v:ud v:nameU="BotLeftOffset" v:prompt="" v:val="VT0(0.059055116876261):1"/>
					<v:ud v:nameU="BotRightOffset" v:prompt="" v:val="VT0(0.031978113894194):1"/>
				</v:userDefs>
				<v:textBlock v:margins="rect(4,4,4,4)" v:tabSpace="42.5197"/>
				<v:textRect cx="54.8678" cy="221.762" width="109.74" height="15.918"/>
				<path d="M4.25 229.72 L107.43 229.72 A2.30239 2.30239 -180 0 0 109.74 227.42 L109.74 216.11 A2.30239 2.30239 -180
							 0 0 107.43 213.8 L2.83 213.8 A2.8346 2.8346 -180 0 0 0 216.64 L0 225.47 A4.2519 4.2519 -180 0 0 4.25
							 229.72 Z" class="st18"/>
				<text x="5.4" y="224.76" class="st11" v:langID="1033"><v:paragraph v:horizAlign="1"/><v:tabList/>More of file home.html</text>			</g>
			<g id="shape116-130" v:mID="116" v:groupContext="shape" transform="translate(58.6185,-152.448)">
				<title>Sheet.116</title>
				<path d="M0 229.72 L294.24 229.72" class="st19"/>
			</g>
			<g id="shape117-133" v:mID="117" v:groupContext="shape" transform="translate(157.973,-131.811)">
				<title>Cloud</title>
				<desc>Network</desc>
				<v:userDefs>
					<v:ud v:nameU="visVersion" v:prompt="" v:val="VT0(15):26"/>
				</v:userDefs>
				<v:textBlock v:margins="rect(4,4,4,4)" v:tabSpace="42.5197"/>
				<v:textRect cx="38.9764" cy="204.957" width="77.96" height="49.5299"/>
				<path d="M3.84 209.45 A6.15604 6.58072 0 0 1 6.79 196.81 A12.4838 13.345 0 0 1 24.91 186.14 A14.3348 15.3237 0 0
							 1 40.43 183.77 A8.98919 9.60932 0 0 1 53.73 182.98 A10.2344 10.9404 0 0 1 70 186.93 A7.31787 7.82243
							 0 0 1 75.91 197.99 A9.06412 9.68908 0 0 1 68.52 213.8 A11.4351 12.2236 0 0 1 52.26 221.7 A13.483 14.4126
							 0 0 1 30.08 224.86 A17.0914 18.2699 0 0 1 10.86 221.7 A6.74291 7.20808 0 0 1 3.84 209.45 Z"
						class="st20"/>
				<path d="M3.84 209.45 A6.15604 6.58072 0 0 1 6.79 196.81 A12.4838 13.345 0 0 1 24.91 186.14 A14.3348 15.3237 0 0
							 1 40.43 183.77 A8.98919 9.60932 0 0 1 53.73 182.98 A10.2344 10.9404 0 0 1 70 186.93 A7.31787 7.82243
							 0 0 1 75.91 197.99 A9.06412 9.68908 0 0 1 68.52 213.8 A11.4351 12.2236 0 0 1 52.26 221.7 A13.483 14.4126
							 0 0 1 30.08 224.86 A17.0914 18.2699 0 0 1 10.86 221.7 A6.74291 7.20808 0 0 1 3.84 209.45" class="st21"/>
				<path d="M7.9 209.85 A6.13903 6.56254 0 0 1 3.84 209.45" class="st21"/>
				<path d="M28.97 222.89 A6.16575 6.5911 -180 0 0 30.08 224.86" class="st21"/>
				<path d="M52.81 219.33 A4.97726 5.32063 0 0 1 52.26 221.7" class="st21"/>
				<path d="M64.08 207.47 A5.22276 5.58306 0 0 1 68.52 213.8" class="st21"/>
				<path d="M73.7 200.37 A4.76814 5.09708 -180 0 0 75.91 197.99" class="st21"/>
				<path d="M27.12 187.72 A7.35292 7.8599 -180 0 0 24.91 186.14" class="st21"/>
				<text x="16.97" y="208.56" class="st22" v:langID="1033"><v:paragraph v:horizAlign="1"/><v:tabList/>Network</text>			</g>
			<g id="shape119-143" v:mID="119" v:groupContext="shape" transform="translate(43.8783,-5.17696)">
				<title>Rectangle.119</title>
				<desc>GET /logo.jpg</desc>
				<v:userDefs>
					<v:ud v:nameU="visVersion" v:val="VT0(15):26"/>
				</v:userDefs>
				<v:textBlock v:margins="rect(4,4,4,4)" v:tabSpace="42.5197"/>
				<v:textRect cx="44.4496" cy="221.762" width="88.9" height="15.918"/>
				<rect x="0" y="213.803" width="88.8992" height="15.918" rx="1" ry="1" class="st10"/>
				<text x="13.88" y="224.76" class="st11" v:langID="1033"><v:paragraph v:horizAlign="1"/><v:tabList/>GET /logo.jpg</text>			</g>
			<g id="shape120-146" v:mID="120" v:groupContext="shape" transform="translate(132.778,-13.136)">
				<title>Sheet.120</title>
				<path d="M0 229.72 L195.2 229.72" class="st12"/>
			</g>
			<g id="shape121-151" v:mID="121" v:groupContext="shape" transform="translate(43.6964,451.274) rotate(180)">
				<title>Sheet.121</title>
				<path d="M0 229.72 L11.34 229.72" class="st14"/>
			</g>
			<g id="shape122-154" v:mID="122" v:groupContext="shape" transform="translate(43.6964,447.908) rotate(180)">
				<title>Sheet.122</title>
				<path d="M0 229.72 L7.65 229.72" class="st14"/>
			</g>
			<g id="shape123-157" v:mID="123" v:groupContext="shape" transform="translate(43.6964,444.442) rotate(180)">
				<title>Sheet.123</title>
				<path d="M0 229.72 L4.82 229.72" class="st14"/>
			</g>
			<g id="shape124-160" v:mID="124" v:groupContext="shape" transform="translate(19.9658,-9.52113)">
				<title>Circle.124</title>
				<desc>4</desc>
				<v:userDefs>
					<v:ud v:nameU="visVersion" v:val="VT0(15):26"/>
				</v:userDefs>
				<v:textBlock v:margins="rect(1,1,1,1)" v:tabSpace="42.5197"/>
				<v:textRect cx="7.05727" cy="222.664" width="12.36" height="10.5859"/>
				<path d="M0 222.66 A7.05727 7.05727 0 0 1 14.11 222.66 A7.05727 7.05727 0 1 1 0 222.66 Z" class="st16"/>
				<text x="3.72" y="226.26" class="st17" v:langID="1033"><v:paragraph v:horizAlign="1"/><v:tabList/>4</text>			</g>
			<g id="shape125-163" v:mID="125" v:groupContext="shape" transform="translate(43.8783,-19.515)">
				<title>Sheet.125</title>
				<desc>HTTP Header</desc>
				<v:textBlock v:margins="rect(4,4,4,4)" v:tabSpace="42.5197"/>
				<v:textRect cx="44.4496" cy="221.762" width="88.9" height="15.918"/>
				<rect x="0" y="213.803" width="88.8992" height="15.918" class="st1"/>
				<text x="13.61" y="224.26" class="st11" v:langID="1033"><v:paragraph v:spLine="-1" v:horizAlign="1"/><v:tabList/>HTTP Header</text>			</g>
			<g id="shape126-166" v:mID="126" v:groupContext="shape" transform="translate(152.5,-114.538)">
				<title>Sheet.126</title>
				<desc>Request</desc>
				<v:textBlock v:margins="rect(4,4,4,4)" v:tabSpace="42.5197"/>
				<v:textRect cx="44.4496" cy="221.762" width="88.9" height="15.918"/>
				<rect x="0" y="213.803" width="88.8992" height="15.918" class="st1"/>
				<text x="24.72" y="224.26" class="st23" v:langID="1033"><v:paragraph v:spLine="-1" v:horizAlign="1"/><v:tabList/>Request</text>			</g>
			<g id="shape127-169" v:mID="127" v:groupContext="shape" transform="translate(152.5,-79.0426)">
				<title>Sheet.127</title>
				<desc>Response</desc>
				<v:textBlock v:margins="rect(4,4,4,4)" v:tabSpace="42.5197"/>
				<v:textRect cx="44.4496" cy="221.762" width="88.9" height="15.918"/>
				<rect x="0" y="213.803" width="88.8992" height="15.918" class="st1"/>
				<text x="20.55" y="224.26" class="st23" v:langID="1033"><v:paragraph v:spLine="-1" v:horizAlign="1"/><v:tabList/>Response</text>			</g>
			<g id="shape128-172" v:mID="128" v:groupContext="shape" transform="translate(152.5,-42.7591)">
				<title>Sheet.128</title>
				<desc>Response</desc>
				<v:textBlock v:margins="rect(4,4,4,4)" v:tabSpace="42.5197"/>
				<v:textRect cx="44.4496" cy="221.762" width="88.9" height="15.918"/>
				<rect x="0" y="213.803" width="88.8992" height="15.918" class="st1"/>
				<text x="20.55" y="224.26" class="st23" v:langID="1033"><v:paragraph v:spLine="-1" v:horizAlign="1"/><v:tabList/>Response</text>			</g>
			<g id="shape129-175" v:mID="129" v:groupContext="shape" transform="translate(152.5,-12.0569)">
				<title>Sheet.129</title>
				<desc>Request</desc>
				<v:textBlock v:margins="rect(4,4,4,4)" v:tabSpace="42.5197"/>
				<v:textRect cx="44.4496" cy="221.762" width="88.9" height="15.918"/>
				<rect x="0" y="213.803" width="88.8992" height="15.918" class="st1"/>
				<text x="24.72" y="224.26" class="st23" v:langID="1033"><v:paragraph v:spLine="-1" v:horizAlign="1"/><v:tabList/>Request</text>			</g>
		</g>
	</g>
</svg>
